<svg width="50" height="41" viewBox="0 0 50 41" fill="none" xmlns="http://www.w3.org/2000/svg">
<path fill-rule="evenodd" clip-rule="evenodd" d="M22.1597 8.01686C23.1806 7.83995 24.5495 7.75158 26.3947 7.80609L26.5291 7.81025L26.5303 7.81034C28.4065 7.99057 29.7742 8.29299 30.722 8.59806C31.6533 8.89782 32.1812 9.20093 32.3869 9.39475L33.4582 8.97937C33.4337 8.78504 33.4168 8.50341 33.4436 8.26655C33.4574 8.1444 33.483 8.0319 33.5267 7.94925C33.5708 7.86579 33.635 7.81025 33.7245 7.81025H35.5536L35.556 7.81085L37.6686 8.33223L37.6773 8.33436L39.1566 10.7834L39.1601 10.7893V11.5073H40.0624V11.2799L39.3944 10.5366L40.6283 8.99423L39.4133 7.26518H37.6539L37.0157 6.50681H35.7833L35.7767 6.49889L34.6764 5.17175L34.6647 5.15768L35.5331 3.83883L35.5392 3.82961L35.5496 3.82887L39.6649 3.54449L39.6737 3.54388L39.7617 3.62498C40.6145 4.41393 41.8927 5.67548 43.058 6.99167C43.6594 7.67098 44.231 8.36514 44.6987 9.01654C45.1657 9.66712 45.53 10.2764 45.7161 10.7865C46.1309 11.6057 46.3959 12.3701 46.4824 12.6685H46.7497L46.7522 12.6893C46.8037 13.1293 46.8324 13.8304 46.7511 14.5053C46.6699 15.1786 46.4784 15.8329 46.0839 16.1708C45.7872 16.4523 45.4244 16.5428 45.2677 16.5544C45.133 16.7558 44.9394 17.0945 44.7892 17.4669C44.6365 17.8457 44.5303 18.2555 44.5735 18.59L44.575 18.6017L44.5673 18.61C43.9362 19.2896 43.3633 19.6913 43.0845 19.8488C43.9113 19.8552 45.7271 20.1373 47.1487 21.2484L47.1835 21.2759L47.1902 21.2812L47.192 21.2898C47.2019 21.3378 47.1962 21.3915 47.1821 21.4456C47.1679 21.4998 47.1447 21.5562 47.1178 21.6101C47.0696 21.7065 47.0083 21.7973 46.9612 21.8586C47.5646 22.2894 48.4131 23.1863 49.0601 24.4145C49.7046 25.6377 50.1499 27.1909 49.953 28.9405L49.9431 29.024C49.3731 33.6277 45.7632 36.6061 41.9765 36.304L41.887 36.2963C39.4274 36.0666 35.358 34.9437 34.1435 30.4256L34.1432 30.4243L34.1429 30.4229C34.0441 29.784 33.9731 29.585 33.9259 29.3669C33.8803 29.1562 33.8583 28.9322 33.8567 28.2936C33.1607 29.4509 33.1394 30.8644 33.2181 31.4346L33.2217 31.4604L33.1975 31.4618C30.4428 31.6198 26.2038 31.7774 22.4399 31.7367C22.0666 23.8356 22.1597 15.9243 22.1597 8.01686ZM42.131 22.788C38.9467 22.788 36.3653 25.3451 36.3653 28.4994C36.3653 31.6538 38.9467 34.2109 42.131 34.2109C45.3153 34.2109 47.8967 31.6538 47.8967 28.4994C47.8967 25.3451 45.3153 22.788 42.131 22.788ZM29.6093 21.7926C29.4699 21.8874 29.1912 22.1813 29.1912 22.5984V23.3568C29.1765 23.6333 29.3276 24.0535 30.0494 23.5227C30.7713 22.9918 32.2868 21.9585 32.9543 21.5082L30.9517 20.821L29.6093 21.7926ZM35.3708 17.9086C35.3035 17.9055 35.2418 17.9068 35.1887 17.9141C35.1426 17.9205 35.1017 17.9315 35.0692 17.9489L35.0557 17.9567C34.4623 18.3354 32.678 19.4582 31.8843 20.1388L31.8528 20.1658L33.8275 20.8908L33.8378 20.8946L33.8469 20.888C34.6249 20.3189 36.276 19.1204 36.6626 18.8744L36.6807 18.8625C36.7692 18.803 36.8258 18.7404 36.857 18.6766C36.8905 18.608 36.8938 18.5399 36.8784 18.477C36.8481 18.3532 36.7457 18.2507 36.6632 18.1941L36.6606 18.1923L36.6577 18.1914L36.5856 18.1687C36.4012 18.1118 36.1091 18.029 35.8262 17.9719C35.6646 17.9393 35.5054 17.9149 35.3708 17.9086Z" fill="#2A2D32"/>
<path d="M2.21497 31.9838L7.97382 31.4522L7.08784 16.3906L13.2897 26.5793L19.365 0L19.365 34.5531L12.4037 40.312L2.21497 31.9838Z" fill="#2A2D32"/>
<path d="M6.20184 25.6934L0 17.2766L3.10092 9.3028L10.6317 12.4037L15.0616 3.10095L13.2897 22.1495L5.75885 13.2897L6.20184 25.6934Z" fill="#2A2D32"/>
</svg>
