<svg width="50" height="50" viewBox="0 0 50 50" fill="none" xmlns="http://www.w3.org/2000/svg">
<path d="M46.9919 17.6369L32.5242 17.4938C31.9751 17.4938 30.3612 17.5582 28.2985 17.8158C26.2358 18.0734 25.744 20.4277 25.7559 21.5726C26.9377 26.3313 27.833 32.0917 32.4884 35.8485C37.1438 39.6054 43.1243 39.176 45.452 39.1402C47.4216 39.11 47.2784 36.743 45.452 36.743C44.9148 36.743 45.083 36.777 40.7607 36.5284C37.9208 36.5284 35.7584 35.6614 34.0999 34.3462C30.2681 29.8734 28.8449 24.1923 28.2985 22.2167C27.9834 20.3848 29.8861 19.9984 30.8769 20.0341C35.1384 20.058 44.2058 20.0914 46.3831 20.0341C48.5317 19.8624 49.1405 21.4176 49.1763 22.2167C49.3315 23.9818 49.6562 27.927 49.7135 29.5872C49.7135 30.589 48.854 31.1257 47.9946 31.3404H43.0168C40.6533 31.4477 41.7993 33.8449 43.1243 33.8449H48.2811C49.5703 33.8449 49.9164 34.8587 50 35.455V38.3531C49.0689 41.5374 48.2811 42.8971 45.7743 47.8346C44.6642 50.4465 41.5963 50.1125 40.1878 49.7667C29.3967 47.1548 7.3204 41.7521 5.34364 41.0365C3.36687 40.321 2.81453 39.176 2.51457 38.4962C1.04634 35.1687 -0.6583 28.3134 0.258463 21.7873C2.62199 4.9353 18.8086 0.534465 22.0316 0.0693355C42.3006 -1.14716 47.6007 14.0232 48.3885 15.8122C48.7036 17.043 47.5887 17.5415 46.9919 17.6369Z" fill="#2A2D32"/>
</svg>
