<svg width="50" height="41" viewBox="0 0 50 41" fill="none" xmlns="http://www.w3.org/2000/svg">
<path fill-rule="evenodd" clip-rule="evenodd" d="M21.6576 8.16151C22.6969 7.98141 24.0905 7.89144 25.969 7.94694L26.1058 7.95118L26.1071 7.95127C28.017 8.13475 29.4094 8.44262 30.3743 8.75319C31.3224 9.05837 31.8599 9.36695 32.0692 9.56426L33.1599 9.14139C33.1349 8.94355 33.1177 8.65684 33.145 8.41571C33.159 8.29136 33.1851 8.17683 33.2296 8.09268C33.2745 8.00772 33.3398 7.95118 33.431 7.95118H35.293L35.2955 7.95179L37.4462 8.48257L37.4551 8.48474L38.961 10.978L38.9647 10.9839V11.7149H39.8832V11.4834L39.2032 10.7267L40.4593 9.15651L39.2224 7.39627H37.4313L36.7816 6.62422H35.5269L35.5202 6.61616L34.4 5.26508L34.3881 5.25076L35.2722 3.90811L35.2784 3.89873L35.2891 3.89798L39.4785 3.60846L39.4876 3.60785L39.5771 3.69041C40.4453 4.49359 41.7465 5.7779 42.9328 7.11782C43.5451 7.8094 44.1271 8.51608 44.6031 9.17922C45.0786 9.84155 45.4494 10.4618 45.6389 10.9811C46.0612 11.8151 46.331 12.5933 46.419 12.8971H46.6912L46.6937 12.9182C46.7461 13.3661 46.7754 14.08 46.6925 14.767C46.6099 15.4524 46.415 16.1185 46.0133 16.4626C45.7112 16.7491 45.342 16.8413 45.1824 16.853C45.0453 17.0581 44.8482 17.403 44.6953 17.782C44.5398 18.1677 44.4318 18.5848 44.4757 18.9254L44.4772 18.9373L44.4693 18.9458C43.8269 19.6376 43.2437 20.0466 42.9599 20.2069C43.8015 20.2134 45.6501 20.5006 47.0973 21.6317L47.1328 21.6597L47.1396 21.6651L47.1414 21.6739C47.1515 21.7227 47.1457 21.7775 47.1313 21.8325C47.1169 21.8877 47.0933 21.9451 47.0659 22C47.0168 22.0981 46.9544 22.1906 46.9064 22.2529C47.5208 22.6915 48.3846 23.6046 49.0433 24.8549C49.6993 26.1002 50.1526 27.6814 49.9522 29.4626L49.9422 29.5476C49.3619 34.2343 45.6868 37.2665 41.8319 36.959L41.7408 36.9511C39.2368 36.7173 35.0939 35.5741 33.8575 30.9745L33.8572 30.9732L33.857 30.9718C33.7563 30.3213 33.684 30.1187 33.636 29.8966C33.5896 29.6822 33.5672 29.4542 33.5656 28.804C32.857 29.9822 32.8353 31.4212 32.9155 32.0017L32.9191 32.0279L32.8945 32.0293C30.09 32.1902 25.7746 32.3507 21.9429 32.3092C21.5628 24.2656 21.6576 16.2116 21.6576 8.16151ZM41.9891 23.1991C38.7474 23.1991 36.1194 25.8023 36.1194 29.0136C36.1194 32.2248 38.7474 34.8281 41.9891 34.8281C45.2309 34.8281 47.8588 32.2248 47.8588 29.0136C47.8588 25.8023 45.2309 23.1991 41.9891 23.1991ZM29.2416 22.1858C29.0997 22.2823 28.8159 22.5815 28.8159 23.0061V23.7781C28.801 24.0596 28.9548 24.4875 29.6896 23.947C30.4245 23.4066 31.9673 22.3547 32.6469 21.8963L30.6082 21.1966L29.2416 22.1858ZM35.107 18.2317C35.0384 18.2285 34.9756 18.2299 34.9216 18.2373C34.8746 18.2438 34.8331 18.255 34.7999 18.2727L34.7862 18.2806C34.1821 18.6662 32.3656 19.8092 31.5576 20.5022L31.5255 20.5296L33.5358 21.2677L33.5464 21.2716L33.5556 21.2648C34.3476 20.6855 36.0285 19.4653 36.422 19.2149L36.4405 19.2028C36.5307 19.1422 36.5882 19.0785 36.62 19.0135C36.6541 18.9437 36.6575 18.8744 36.6418 18.8103C36.6109 18.6843 36.5067 18.5799 36.4227 18.5223L36.4201 18.5205L36.4171 18.5196L36.3437 18.4965C36.156 18.4385 35.8586 18.3543 35.5706 18.2962C35.4061 18.2629 35.244 18.2381 35.107 18.2317Z" fill="#2A2D32"/>
<path d="M14.4314 21.647H18.934V40.3789H14.4314V21.647Z" fill="#2A2D32"/>
<path d="M6.92705 0H12.411L19.1648 18.7319H14.6045L12.9305 13.7964H6.09003L4.44486 18.7319H0L6.92705 0ZM11.9492 10.7947L9.58242 3.75215H9.46697L7.10023 10.7947H11.9492Z" fill="#2A2D32"/>
</svg>
