<svg width="32" height="25" viewBox="0 0 32 25" fill="none" xmlns="http://www.w3.org/2000/svg">
<path d="M0 15L20.5 0H31.5L0 24.5V15Z" fill="#E7E8E9"/>
<path d="M9.72634 16.4899C9.38979 16.7408 9.11465 16.9001 8.90093 16.9676C8.68838 17.0267 8.48688 17.0049 8.29642 16.9022C8.10712 16.791 7.88942 16.5787 7.6433 16.2652C7.42368 15.9854 7.28605 15.7401 7.23038 15.5293C7.17967 15.3148 7.207 15.1147 7.31237 14.9291C7.4189 14.735 7.61322 14.5328 7.89534 14.3224L9.11288 13.4147L8.92545 13.176C8.80807 13.0264 8.69871 12.9321 8.59737 12.893C8.50098 12.8501 8.3845 12.8567 8.24795 12.9126C8.11635 12.9649 7.93918 13.074 7.71646 13.2401C7.4096 13.4688 7.01162 13.8114 6.52253 14.2678L6 13.6022C6.35313 13.2625 6.79202 12.897 7.31665 12.5059C7.77694 12.1627 8.15733 11.9327 8.4578 11.8157C8.76323 11.695 9.03476 11.6761 9.27238 11.7589C9.51001 11.8417 9.75188 12.0399 9.998 12.3534L11.8893 14.7626L10.8277 15.5541L10.5778 15.2358C10.6035 15.4384 10.5672 15.6221 10.4692 15.787C10.3748 15.9567 10.1272 16.191 9.72634 16.4899ZM9.63266 15.516C9.85043 15.3537 10.0007 15.2302 10.0833 15.1456C10.1451 15.0843 10.1807 15.0348 10.1903 14.9971C10.2049 14.9556 10.205 14.9058 10.1907 14.8476C10.184 14.7991 10.1542 14.7411 10.1011 14.6736L9.56725 13.9935L8.82485 14.547C8.65657 14.6725 8.54725 14.7731 8.49689 14.8488C8.44275 14.9198 8.42981 14.9983 8.45807 15.0842C8.48255 15.1654 8.55916 15.288 8.6879 15.452C8.81285 15.6111 8.91231 15.7128 8.98628 15.7571C9.06025 15.8013 9.13946 15.8073 9.22389 15.7749C9.31328 15.7389 9.44954 15.6526 9.63266 15.516Z" fill="#2A2D32"/>
<path d="M14.2806 13.0945C13.855 13.4118 13.518 13.6172 13.2696 13.7106C13.0175 13.7992 12.7856 13.7886 12.5738 13.6788C12.3621 13.569 12.1162 13.3357 11.836 12.9788L10.7625 11.6114C10.4596 11.2255 10.357 10.87 10.4548 10.5448C10.5575 10.2158 10.8613 9.86321 11.3661 9.48683C11.6037 9.30971 11.8006 9.18581 11.957 9.11512C12.1145 9.03591 12.2618 8.99871 12.399 9.00351C12.5324 9.00348 12.6928 9.03296 12.8803 9.09194L11.3468 7.13853L12.4307 6.33042L16.4065 11.3948L15.3597 12.1753L15.0473 11.7773C15.0681 11.9836 15.064 12.1434 15.0352 12.2566C15.0076 12.3613 14.9408 12.4761 14.8348 12.601C14.7277 12.7344 14.543 12.8989 14.2806 13.0945ZM14.0385 12.2313C14.281 12.0505 14.4497 11.9056 14.5446 11.7966C14.6395 11.6876 14.6822 11.587 14.6725 11.4948C14.6591 11.3977 14.6013 11.2841 14.4991 11.1539L13.3915 9.74308C13.2969 9.6225 13.2026 9.54746 13.1089 9.51797C13.0163 9.47996 12.9042 9.48708 12.7726 9.53932C12.6459 9.58787 12.4762 9.69148 12.2633 9.85015C12.0357 10.0199 11.8837 10.1561 11.8074 10.2589C11.7274 10.3568 11.6965 10.4524 11.7149 10.5458C11.7344 10.6306 11.8029 10.7478 11.9203 10.8973L12.971 12.2358C13.077 12.3708 13.1733 12.4634 13.2598 12.5137C13.3474 12.5554 13.4496 12.5556 13.5664 12.5144C13.6831 12.4733 13.8405 12.3789 14.0385 12.2313Z" fill="#2A2D32"/>
<path d="M18.7603 9.75467C18.3742 10.0425 17.8732 10.3587 17.2571 10.7033L16.7062 10.0015C17.4737 9.58993 17.991 9.28449 18.2583 9.08523C18.486 8.91549 18.6372 8.76833 18.712 8.64374C18.7868 8.51915 18.7788 8.39898 18.6879 8.28322L18.5175 8.06617C18.4229 7.94559 18.322 7.88701 18.2148 7.89044C18.1039 7.88905 17.9469 7.96399 17.744 8.11528L17.2763 8.46398C16.8952 8.74811 16.5439 8.89532 16.2224 8.9056C15.8972 8.91106 15.6229 8.7715 15.3995 8.48693L15.0643 8.06007C14.8258 7.75621 14.8058 7.43087 15.0043 7.08407C15.199 6.73244 15.5958 6.33339 16.1947 5.8869C16.4323 5.70978 16.875 5.41415 17.5228 5L18.051 5.67284C17.2334 6.1906 16.7752 6.48638 16.6762 6.56018C16.3842 6.77789 16.2088 6.93924 16.15 7.04425C16.1049 7.1467 16.1277 7.2558 16.2186 7.37156L16.3663 7.55967C16.4155 7.62237 16.4912 7.65385 16.5934 7.65411C16.6918 7.64955 16.8029 7.60115 16.9267 7.5089L17.4018 7.15466C18.2828 6.49785 18.9429 6.44919 19.3821 7.00868L19.7286 7.45001C19.8611 7.61882 19.9444 7.78992 19.9785 7.96329C20.0126 8.13667 20.0061 8.29827 19.959 8.44811C19.913 8.58944 19.826 8.73843 19.6979 8.8951C19.5747 9.04807 19.4347 9.19452 19.2778 9.33445C19.1357 9.46331 18.9632 9.60338 18.7603 9.75467Z" fill="#2A2D32"/>
</svg>
